<svg width="16" height="12" viewBox="0 0 16 12" fill="none" xmlns="http://www.w3.org/2000/svg">
<path d="M14.0816 0.0152995L7.79967 0.030599L1.51771 0H1.51465C0.670117 0 0 0.792513 0 1.78392V10.0885C0 11.0799 0.670117 11.8724 1.51465 11.8724H14.0908C14.9354 11.8724 15.6055 11.0799 15.6055 10.0885V1.78392C15.6055 0.792513 14.9415 0.0152995 14.0816 0.0152995ZM13.589 1.23926L7.97715 6.3707L7.95573 6.38906L7.93737 6.41048C7.87005 6.48392 7.79049 6.4931 7.74766 6.4931C7.70482 6.4931 7.62526 6.48086 7.561 6.40436L7.54264 6.38294L2.17865 1.21478L7.79967 1.2515L13.589 1.23926ZM14.0908 10.6484H1.51465C1.40755 10.6484 1.22396 10.4465 1.22396 10.0885V1.97975L6.65833 7.23053C6.93372 7.53652 7.32233 7.714 7.73542 7.72012H7.75378C8.16074 7.72012 8.54017 7.55182 8.81862 7.25807L14.3876 2.16029V10.0885C14.3815 10.4465 14.1979 10.6484 14.0908 10.6484Z" fill="#086861"/>
</svg>
