<svg width="15" height="15" viewBox="0 0 15 15" fill="none" xmlns="http://www.w3.org/2000/svg">
<g clip-path="url(#clip0_799_3952)">
<path d="M12.0179 9.53906L10.4304 9.35781C10.2438 9.33589 10.0546 9.35655 9.87702 9.41826C9.69949 9.47996 9.53825 9.5811 9.40542 9.71406L8.25542 10.8641C6.48116 9.9617 5.03903 8.51957 4.13667 6.74531L5.29292 5.58906C5.56167 5.32031 5.69292 4.94531 5.64917 4.56406L5.46792 2.98906C5.43249 2.68417 5.28617 2.40296 5.05682 2.19897C4.82747 1.99497 4.53111 1.88245 4.22417 1.88281H3.14292C2.43667 1.88281 1.84917 2.47031 1.89292 3.17656C2.22417 8.51406 6.49292 12.7766 11.8242 13.1078C12.5304 13.1516 13.1179 12.5641 13.1179 11.8578V10.7766C13.1242 10.1453 12.6492 9.61406 12.0179 9.53906Z" fill="#008D83"/>
</g>
<defs>
<clipPath id="clip0_799_3952">
<rect width="15" height="15" fill="white"/>
</clipPath>
</defs>
</svg>
