<svg width="14" height="12" viewBox="0 0 14 12" fill="none" xmlns="http://www.w3.org/2000/svg">
<path d="M6.99839 12C6.72919 11.9987 6.47133 11.8955 6.28058 11.7125L1.23694 6.85541C0.458314 6.11506 0.0140048 5.10897 0.000325434 4.05524C-0.013354 3.00151 0.404699 1.98504 1.16386 1.22617C1.92303 0.467298 2.96213 0.0271805 4.05593 0.00121717C5.14972 -0.0247462 6.21007 0.365537 7.00713 1.08747C7.80664 0.371821 8.86612 -0.0125629 9.95716 0.0171811C11.0482 0.046925 12.0834 0.488414 12.8396 1.24647C13.5958 2.00453 14.0125 3.01844 13.9997 4.06963C13.987 5.12081 13.5459 6.12508 12.7715 6.86592L7.71621 11.7195C7.52458 11.9004 7.26666 12.0011 6.99839 12ZM4.17081 1.27188C3.60649 1.27185 3.05488 1.43325 2.58594 1.73561C2.117 2.03797 1.75186 2.46766 1.53685 2.97019C1.32183 3.47272 1.26662 4.02543 1.37822 4.55822C1.48982 5.09101 1.76321 5.57987 2.16369 5.9628L7.00276 10.6215L11.8455 5.96981C12.1134 5.7157 12.3265 5.41303 12.4724 5.07925C12.6184 4.74547 12.6943 4.38717 12.6958 4.025C12.6973 3.66284 12.6245 3.30396 12.4813 2.96904C12.3382 2.63413 12.1277 2.3298 11.862 2.07359C11.5962 1.81738 11.2804 1.61435 10.9328 1.47621C10.5852 1.33807 10.2127 1.26754 9.83664 1.26869C9.46062 1.26984 9.08854 1.34265 8.74186 1.48291C8.39518 1.62317 8.08075 1.82812 7.81667 2.08595L7.00713 2.86847L6.19176 2.08315C5.92742 1.82582 5.61266 1.6216 5.26574 1.48234C4.91882 1.34308 4.54665 1.27154 4.17081 1.27188Z" fill="black"/>
</svg>
