<svg width="15" height="15" viewBox="0 0 15 15" fill="none" xmlns="http://www.w3.org/2000/svg">
<g clip-path="url(#clip0_799_2944)">
<path d="M13.2349 7.01613V13.3927L11.2309 13.0218L10.3475 11.962L6.625 7.8237L9.78543 5.57812C11.3685 7.66775 11.4185 7.15834 11.4185 7.15834C11.4185 7.15834 12.2005 5.99086 13.2037 6.99407L13.2349 7.01613Z" fill="#CCCCCC"/>
<path d="M5.58509 6.53516L12.1567 14.993C12.1181 14.9969 12.0794 14.9988 12.0407 14.9989H1.29688L5.58509 6.53516Z" fill="#518EF8"/>
<path d="M9.78968 5.58069L0.015625 13.807V2.97125C0.015625 2.31172 0.55041 1.77734 1.20953 1.77734H8.33714C8.03107 2.3034 9.16592 2.64104 9.16592 3.29352C9.16592 3.95018 9.47989 5.05215 9.78968 5.58069Z" fill="#28B446"/>
<path d="M13.2333 13.3948V13.8065C13.2333 14.4265 12.7605 14.9363 12.1554 14.9945L6.65625 9.56775L7.98738 8.21875L11.0597 11.2503L11.2293 11.4179L13.2333 13.3948Z" fill="#F2F2F2"/>
<path d="M9.45118 6.74115L7.99322 8.21865L6.66209 9.56766L1.30144 15.0003H1.20953C0.55041 15.0003 0.015625 14.4655 0.015625 13.8064L8.34338 5.36719C8.49933 5.63417 9.5718 5.36385 9.78971 5.58009L10.1902 6.09489C10.3856 6.30328 9.28319 6.51993 9.45118 6.74115Z" fill="#FFD837"/>
<path d="M3.12907 6.67221C2.08001 6.67221 1.22656 5.81876 1.22656 4.7697C1.22656 3.72063 2.08001 2.86719 3.12907 2.86719C3.6369 2.86719 4.11453 3.06518 4.47409 3.42471L4.03297 3.86574C3.79133 3.62404 3.47029 3.49095 3.12907 3.49095C2.42395 3.49095 1.85035 4.06458 1.85035 4.76967C1.85035 5.47476 2.42398 6.04839 3.12907 6.04839C3.72661 6.04839 4.22979 5.63642 4.36933 5.08153H3.12907V4.45777H5.03158V4.76967C5.03155 5.81876 4.17813 6.67221 3.12907 6.67221Z" fill="white"/>
<path d="M8.33271 1.7765C8.95022 0.714434 10.1009 0 11.4183 0C13.3881 0 14.985 1.59686 14.985 3.56672C14.985 4.06075 14.8844 4.53105 14.703 4.95897C14.5225 5.38361 14.2614 5.76927 13.9342 6.09463C13.6639 6.38197 13.4214 6.68555 13.2035 6.99577C11.7759 9.02968 11.4183 11.3518 11.4183 11.3518C11.4183 11.3518 11.0299 8.83049 9.44675 6.74086C9.27876 6.51964 9.09744 6.30296 8.902 6.09463H8.90241C8.68374 5.87759 8.49432 5.63295 8.33894 5.36689C8.02913 4.83835 7.85156 4.22332 7.85156 3.56669C7.85156 2.91425 8.02664 2.30253 8.33271 1.7765Z" fill="#F14336"/>
<path d="M11.4218 1.66797C12.4701 1.66797 13.3197 2.51808 13.3197 3.56635C13.3197 4.61462 12.4701 5.46423 11.4218 5.46423C10.3735 5.46423 9.52344 4.61462 9.52344 3.56635C9.52344 2.51808 10.3736 1.66797 11.4218 1.66797Z" fill="#7E2D25"/>
</g>
<defs>
<clipPath id="clip0_799_2944">
<rect width="15" height="15" fill="white"/>
</clipPath>
</defs>
</svg>
