<svg width="12" height="14" viewBox="0 0 12 14" fill="none" xmlns="http://www.w3.org/2000/svg">
<path d="M9.76437 4.73334C10.2515 4.7337 10.7253 4.56358 11.1128 4.24916C11.5003 3.93474 11.7801 3.49343 11.909 2.99313C12.038 2.49284 12.009 1.96128 11.8265 1.48024C11.6441 0.999208 11.3182 0.595349 10.8992 0.330805C10.4801 0.0662609 9.99099 -0.04431 9.50714 0.0161051C9.02328 0.0765201 8.57147 0.304573 8.22123 0.665176C7.87098 1.02578 7.64171 1.49895 7.56868 2.01189C7.49565 2.52483 7.58291 3.04911 7.81704 3.50407L3.97288 5.63865C3.69005 5.25153 3.30119 4.96766 2.86015 4.82634C2.4191 4.68503 1.94771 4.69326 1.51126 4.84991C1.0748 5.00656 0.694893 5.30387 0.424148 5.70065C0.153404 6.09744 0.00522511 6.57407 0.000135637 7.06452C-0.00495383 7.55497 0.133298 8.03496 0.395742 8.43802C0.658186 8.84109 1.03183 9.14726 1.46493 9.31414C1.89802 9.48102 2.36913 9.50035 2.813 9.36945C3.25687 9.23855 3.65153 8.96389 3.94232 8.58353L7.72614 10.6785C7.50026 11.2314 7.48037 11.8551 7.67049 12.423C7.86061 12.9909 8.2465 13.4606 8.74986 13.7366C9.25322 14.0126 9.83634 14.0744 10.3809 13.9093C10.9254 13.7442 11.3906 13.3647 11.682 12.8478C11.9734 12.3308 12.0692 11.7152 11.95 11.1258C11.8308 10.5364 11.5054 10.0173 11.04 9.67402C10.5746 9.3307 10.004 9.1888 9.4439 9.27713C8.88384 9.36546 8.37631 9.67739 8.0243 10.1496L4.24713 8.05833C4.37241 7.76197 4.43886 7.44124 4.44231 7.11625C4.44577 6.79126 4.38616 6.46901 4.26722 6.16969L8.16426 4.00574C8.37101 4.23581 8.61938 4.41889 8.89439 4.54394C9.1694 4.66899 9.46534 4.73342 9.76437 4.73334Z" fill="black"/>
</svg>
