<svg width="11" height="11" viewBox="0 0 11 11" fill="none" xmlns="http://www.w3.org/2000/svg">
<g clip-path="url(#clip0_799_1535)">
<path d="M5.50944 0H5.48744C4.886 0 4.39844 0.487562 4.39844 1.089V9.911C4.39844 10.5124 4.886 11 5.48744 11H5.50944C6.11088 11 6.59844 10.5124 6.59844 9.911V1.089C6.59844 0.487562 6.11088 0 5.50944 0Z" fill="#000100"/>
<path d="M9.911 4.39844H1.089C0.487562 4.39844 0 4.886 0 5.48744V5.50944C0 6.11088 0.487562 6.59844 1.089 6.59844H9.911C10.5124 6.59844 11 6.11088 11 5.50944V5.48744C11 4.886 10.5124 4.39844 9.911 4.39844Z" fill="#000100"/>
</g>
<defs>
<clipPath id="clip0_799_1535">
<rect width="11" height="11" fill="white"/>
</clipPath>
</defs>
</svg>
