<svg width="9" height="12" viewBox="0 0 9 12" fill="none" xmlns="http://www.w3.org/2000/svg">
<path d="M5.12627 10.251C5.38889 10.2598 5.64672 10.3326 5.88211 10.4644H5.89628C6.09294 10.6467 6.12636 10.9721 5.97186 11.2004C5.69055 11.6578 5.24045 11.9463 4.74836 11.9844C4.24279 12.0529 3.73366 11.8939 3.33117 11.5417C3.12417 11.3804 2.98965 11.1254 2.9627 10.843C2.9627 10.5444 3.20834 10.4057 3.43509 10.347C3.70068 10.2835 3.97141 10.2513 4.24289 10.251H5.12627ZM4.53105 0C6.16555 0 7.852 1.34405 8.02679 3.29078C8.05513 3.69079 8.02679 4.10681 8.05513 4.51216C8.14788 5.03489 8.36137 5.52064 8.67397 5.9202C8.86832 6.24857 8.9809 6.62989 8.99996 7.02424V7.14691C9.00283 7.67903 8.83503 8.19435 8.52753 8.59763C8.13779 9.07114 7.60899 9.36871 7.03948 9.43499C5.35686 9.68032 3.65328 9.68032 1.97066 9.43499C1.39445 9.37375 0.858204 9.07577 0.46372 8.59763C0.165863 8.19049 0.00967002 7.67472 0.0243908 7.14691V7.02424C0.0428258 6.63137 0.151937 6.25076 0.340897 5.9202C0.654886 5.52028 0.871397 5.03506 0.969184 4.51216C0.997528 4.10681 0.969184 3.69613 0.997528 3.29078C1.17704 1.34405 2.83043 0 4.48381 0H4.53105Z" fill="#008D83"/>
</svg>
