<svg width="15" height="14" viewBox="0 0 15 14" fill="none" xmlns="http://www.w3.org/2000/svg">
<path d="M2.5 7.0013C2.5 7.15601 2.56585 7.30439 2.68306 7.41378C2.80027 7.52318 2.95924 7.58464 3.125 7.58464H7.86875L6.43125 8.92047C6.37267 8.9747 6.32617 9.03922 6.29444 9.1103C6.26271 9.18138 6.24638 9.25763 6.24638 9.33464C6.24638 9.41164 6.26271 9.48789 6.29444 9.55897C6.32617 9.63006 6.37267 9.69457 6.43125 9.7488C6.48935 9.80348 6.55848 9.84687 6.63464 9.87649C6.7108 9.90611 6.79249 9.92135 6.875 9.92135C6.95751 9.92135 7.0392 9.90611 7.11536 9.87649C7.19152 9.84687 7.26065 9.80348 7.31875 9.7488L9.81875 7.41547C9.87565 7.35999 9.92025 7.29457 9.95 7.22297C10.0125 7.08095 10.0125 6.92165 9.95 6.77964C9.92025 6.70803 9.87565 6.64261 9.81875 6.58714L7.31875 4.2538C7.26048 4.19941 7.19129 4.15627 7.11516 4.12683C7.03902 4.0974 6.95741 4.08225 6.875 4.08225C6.79259 4.08225 6.71098 4.0974 6.63484 4.12683C6.55871 4.15627 6.48952 4.19941 6.43125 4.2538C6.37298 4.30819 6.32675 4.37276 6.29521 4.44382C6.26367 4.51489 6.24744 4.59105 6.24744 4.66797C6.24744 4.74489 6.26367 4.82105 6.29521 4.89211C6.32675 4.96318 6.37298 5.02775 6.43125 5.08214L7.86875 6.41797H3.125C2.95924 6.41797 2.80027 6.47943 2.68306 6.58882C2.56585 6.69822 2.5 6.84659 2.5 7.0013ZM10.625 1.16797H4.375C3.87772 1.16797 3.40081 1.35234 3.04917 1.68053C2.69754 2.00872 2.5 2.45384 2.5 2.91797V4.66797C2.5 4.82268 2.56585 4.97105 2.68306 5.08045C2.80027 5.18984 2.95924 5.2513 3.125 5.2513C3.29076 5.2513 3.44973 5.18984 3.56694 5.08045C3.68415 4.97105 3.75 4.82268 3.75 4.66797V2.91797C3.75 2.76326 3.81585 2.61489 3.93306 2.50549C4.05027 2.39609 4.20924 2.33464 4.375 2.33464H10.625C10.7908 2.33464 10.9497 2.39609 11.0669 2.50549C11.1842 2.61489 11.25 2.76326 11.25 2.91797V11.0846C11.25 11.2393 11.1842 11.3877 11.0669 11.4971C10.9497 11.6065 10.7908 11.668 10.625 11.668H4.375C4.20924 11.668 4.05027 11.6065 3.93306 11.4971C3.81585 11.3877 3.75 11.2393 3.75 11.0846V9.33464C3.75 9.17993 3.68415 9.03155 3.56694 8.92216C3.44973 8.81276 3.29076 8.7513 3.125 8.7513C2.95924 8.7513 2.80027 8.81276 2.68306 8.92216C2.56585 9.03155 2.5 9.17993 2.5 9.33464V11.0846C2.5 11.5488 2.69754 11.9939 3.04917 12.3221C3.40081 12.6503 3.87772 12.8346 4.375 12.8346H10.625C11.1223 12.8346 11.5992 12.6503 11.9508 12.3221C12.3025 11.9939 12.5 11.5488 12.5 11.0846V2.91797C12.5 2.45384 12.3025 2.00872 11.9508 1.68053C11.5992 1.35234 11.1223 1.16797 10.625 1.16797Z" fill="#008D83"/>
</svg>
