<svg width="12" height="14" viewBox="0 0 12 14" fill="none" xmlns="http://www.w3.org/2000/svg">
<path d="M8.08828 2.1082C7.44375 1.53672 6.71719 1.33984 5.79609 1.33984C5.09766 1.33984 4.5 1.50664 4.02656 1.87852C3.32813 2.43359 3 3.36602 3 4.83984H4.8C4.8 4.44609 4.76719 4.02227 4.96406 3.65859C5.16094 3.29492 5.43516 3.01602 5.90625 3.01602C6.38438 3.01602 6.63047 3.17734 6.8625 3.51094C7.05937 3.79531 7.13437 4.13437 7.13437 4.49531C7.13437 4.80703 6.99844 5.09414 6.83672 5.35391C6.74766 5.50703 6.63047 5.64375 6.48281 5.775C6.48281 5.775 5.51016 6.45039 5.16797 7.09023C4.9125 7.56602 4.82109 8.16211 4.8 8.87578C4.79766 8.92773 4.81406 9.03437 4.96875 9.03437H6.41719C6.55312 9.03437 6.58125 8.91406 6.58359 8.86484C6.59297 8.60508 6.62109 8.20586 6.66094 8.05547C6.73828 7.77109 6.88828 7.52227 7.12266 7.30898L7.60781 6.91797C8.04609 6.51875 8.39531 6.19336 8.55 5.93633C8.81484 5.51523 9 4.9957 9 4.38047C9 3.37695 8.68359 2.63594 8.08828 2.1082ZM5.67188 10.1227C5.06484 10.1008 4.56328 10.593 4.54219 11.3613C4.52344 12.1324 4.99922 12.6383 5.60859 12.6602C6.24141 12.682 6.73125 12.2062 6.75 11.4379C6.76875 10.6695 6.30469 10.1445 5.67188 10.1227Z" fill="#008D83"/>
</svg>
